<svg width="119" height="31" viewBox="0 0 119 31" fill="none" xmlns="http://www.w3.org/2000/svg">
<g clip-path="url(#clip0_5_16)">
<path d="M96.605 14.1406C96.4057 11.7638 95.3537 9.7814 94.5981 7.65346C93.7113 6.11244 92.4514 4.61837 91.0953 3.5929C90.0364 2.99847 89.1667 1.87721 87.9076 1.79269C85.2047 0.508041 81.9004 0.23008 78.7741 0.690226C78.4598 -0.0187759 77.7297 0.115511 77.1385 5.72205e-06C76.3063 0.383148 75.3164 0.345585 74.514 0.832966C73.2209 1.15976 72.0206 2.22279 71.1952 3.38255C69.7606 4.70758 69.4966 6.37068 68.5399 7.98495C68.4352 8.51177 68.2946 9.42737 68.0058 9.86685C66.7281 15.8074 67.6148 22.2448 72.2038 26.0762C74.7917 28.1929 77.5824 29.7921 80.7104 30.4927C85.4032 30.9819 89.941 30.2438 93.0341 26.0762C95.9534 22.8871 97.0403 18.6049 96.605 14.1406ZM93.2241 21.5245C91.4267 24.4676 88.7399 27.6679 85.4628 28.0013C83.5794 28.5206 81.0698 28.6061 79.3278 27.6576C75.9136 26.0959 71.7872 23.9389 70.3263 19.6586C68.4684 14.8299 69.7002 9.0245 72.6382 5.17336C73.8623 3.391 75.6793 2.56743 77.5824 2.28102C77.7212 2.56743 77.8788 2.96091 78.2085 3.03697C79.3278 3.20882 80.2589 2.45287 81.4591 2.62472C85.9688 2.90268 90.556 4.66626 92.9727 9.37948C94.8229 12.7986 95.2583 18.0481 93.2241 21.5245Z" fill="black"/>
<path d="M75.9573 5.45123C76.3483 6.27479 76.0629 7.31998 75.706 8.07593C75.2528 8.65065 74.5492 8.81405 73.889 8.62248C73.5338 8.18205 73.6284 7.45332 73.6982 6.89739C73.8055 6.09918 74.1582 5.36483 74.9505 5.03897C75.3312 5.06808 75.6532 5.22115 75.9573 5.45123Z" fill="black"/>
<path d="M14.3903 7.86514L6.62997 14.8302L16.1366 22.9063L14.2591 25.3206L4.12639 16.9657L3.06667 17.8672V24.6971L0 24.7638V5.66207H2.99682L3.04964 13.493L12.4524 5.38504L14.3903 7.86514Z" fill="black"/>
<path d="M24.4607 18.7667C24.6268 20.3471 26.1124 21.5247 27.397 21.8703C29.4576 22.1389 31.8471 21.9877 32.9689 19.8025L33.2075 19.0991L33.2824 18.2117L33.342 5.86284L36.4087 5.79617L36.3491 18.6239C36.1225 20.9237 34.8626 23.2207 32.8454 24.2077C29.9696 25.6642 25.6507 25.5581 23.2706 22.9718C22.0099 21.6703 21.4902 20.041 21.3923 18.2117V5.79617H24.3388L24.4607 18.7667Z" fill="black"/>
<path d="M52.6966 13.1449L58.5019 5.86329H61.1231L61.1146 25.0026L58.1408 25.0401L58.1254 11.4076C58.0479 11.293 52.6966 18.0065 52.6966 18.0065C50.9409 15.948 47.1766 11.3588 47.1766 11.3588V25.0026L44.23 24.9744V5.86329H46.9245L52.6966 13.1449Z" fill="black"/>
<path d="M116.124 19.596V6.20859H119V25.2042L116.431 25.2436L105.737 11.8055V25.1751H102.862L102.923 6.07336H105.449C105.449 6.07336 116.044 19.6721 116.124 19.596Z" fill="black"/>
<path d="M90.5312 8.68999C90.9393 9.15859 91.0611 9.84787 90.9043 10.4902C90.7118 11.2086 90.0976 11.6208 89.532 11.9364C89.1751 11.9279 88.853 11.8603 88.5932 11.5917C88.307 10.7193 88.566 9.75208 88.8446 8.96702C89.21 8.34441 90.0789 8.08617 90.5312 8.68999Z" fill="black"/>
<path d="M84.1955 24.3904C85.1095 24.7163 86.2825 24.5247 86.9512 25.3576C87.0032 25.8469 86.9069 26.2789 86.5687 26.6047C85.6121 26.8714 84.8829 26.0958 84.0668 26.3934C82.5812 25.9436 80.5376 26.8423 79.5035 25.3576C79.3987 24.9463 79.3817 24.3416 79.7565 24.1124C81.312 23.796 82.6758 24.4017 84.1955 24.3904Z" fill="black"/>
</g>
<defs>
<clipPath id="clip0_5_16">
<rect width="119" height="30.625" fill="white"/>
</clipPath>
</defs>
</svg>
